<?xml version="1.0" standalone="no"?><!-- Generator: Gravit.io --><svg xmlns="http://www.w3.org/2000/svg" xmlns:xlink="http://www.w3.org/1999/xlink" style="isolation:isolate" viewBox="0 0 4328.852 1862.843" width="4328.852" height="1862.843"><defs><clipPath id="_clipPath_ecieEOyfitG2GzQMzMqlZsc2SbHBnwZn"><rect width="4328.852" height="1862.843"/></clipPath></defs><g clip-path="url(#_clipPath_ecieEOyfitG2GzQMzMqlZsc2SbHBnwZn)"><path d=" M -610.169 -588.218 L 5024.408 -588.218 L 5024.408 2631.54 L -610.169 2631.54 L -610.169 -588.218 Z " fill="none"/><path d=" M 781.036 679.196 C 753.611 674.25 726.024 670.306 698.363 668.812 C 684.544 668.075 670.715 667.746 656.95 668.382 C 643.189 668.963 629.499 670.308 615.959 672.404 C 588.86 676.557 562.542 684.495 537.459 695.272 C 524.922 700.689 512.647 706.739 500.687 713.425 C 488.723 720.106 477.03 727.312 465.544 734.875 C 442.6 750.064 420.47 766.677 398.777 783.899 C 377.598 800.756 358.453 820.091 341.557 841.257 C 324.636 862.41 309.852 885.299 297.094 909.321 C 284.344 933.355 273.459 958.44 264.219 984.166 C 245.774 1035.668 233.444 1089.464 225.086 1143.89 C 216.639 1198.341 212.224 1253.509 210.127 1308.798 C 208.113 1364.111 208.592 1419.582 210.473 1475.065 C 211.407 1502.81 212.773 1530.558 214.308 1558.32 C 215.906 1586.079 217.732 1613.848 219.693 1641.641 L 225.691 1725.174 C 226.631 1739.14 227.538 1753.127 228.254 1767.203 C 228.956 1781.291 229.543 1795.399 229.294 1809.947 C 229.093 1817.295 228.885 1824.547 227.373 1832.904 C 227 1834.983 226.428 1837.275 225.604 1839.741 C 225.372 1840.389 225.081 1841.092 224.806 1841.759 C 224.566 1842.388 224.173 1843.174 223.737 1843.959 C 223.321 1844.722 222.92 1845.463 222.19 1846.416 C 221.515 1847.308 220.934 1848.114 219.781 1849.14 C 218.785 1850.075 217.656 1850.97 216.03 1851.777 C 214.564 1852.59 212.864 1853.089 211.094 1853.371 C 209.436 1853.683 207.395 1853.583 205.972 1853.309 C 204.352 1853.031 203.206 1852.596 202.023 1852.116 C 201.039 1851.661 200.005 1851.125 199.292 1850.645 C 198.46 1850.13 197.837 1849.649 197.204 1849.158 C 195.973 1848.176 195.013 1847.243 194.116 1846.326 C 190.718 1842.7 188.522 1839.369 186.413 1836.035 C 184.351 1832.714 182.535 1829.428 180.824 1826.143 C 177.417 1819.578 174.434 1813.017 171.591 1806.433 C 160.388 1780.102 151.39 1753.455 142.863 1726.654 C 126.022 1673.029 111.79 1618.837 98.731 1564.401 C 92.235 1537.174 86.029 1509.89 80.201 1482.527 C 74.274 1455.19 68.802 1427.759 63.47 1400.306 C 42.364 1290.457 25.578 1179.781 14.385 1068.432 C 11.629 1040.591 9.111 1012.721 7.119 984.802 C 5.047 956.889 3.433 928.935 2.23 900.953 C -0.123 844.992 -0.813 788.894 1.129 732.789 C 3.006 676.689 7.338 620.559 15.236 564.757 C 19.201 536.863 24.001 509.046 29.907 481.411 C 35.857 453.788 42.864 426.342 51.154 399.215 C 59.424 372.087 69.008 345.283 80.198 319.067 C 91.372 292.852 104.121 267.207 118.716 242.53 C 133.298 217.854 149.716 194.139 168.099 171.908 C 186.473 149.679 206.847 128.974 229.059 110.347 C 240.148 101.017 251.726 92.252 263.684 84.031 C 269.626 79.926 275.855 75.937 282.085 72.136 C 288.348 68.35 294.723 64.774 301.159 61.332 C 326.972 47.684 354.084 36.967 381.703 28.549 C 409.335 20.122 437.493 14.007 465.795 9.568 C 494.101 5.107 522.578 2.477 551.038 1.089 C 607.981 -1.65 664.852 0.938 721.181 7.049 C 749.357 10.093 777.387 14.226 805.275 19.121 C 833.155 24.067 860.904 29.775 888.428 36.596 C 915.957 43.405 943.296 51.087 970.399 60.22 C 983.949 64.808 997.448 69.723 1010.893 75.443 C 1017.621 78.323 1024.339 81.377 1031.115 84.867 C 1034.507 86.63 1037.915 88.497 1041.394 90.617 C 1044.889 92.778 1048.392 95.033 1052.314 98.364 C 1054.275 100.069 1056.327 101.896 1058.729 105.058 C 1059.319 105.834 1059.985 106.866 1060.56 107.79 C 1061.217 108.949 1061.832 110.116 1062.414 111.58 C 1063.591 114.537 1064.604 119.037 1063.726 124.022 C 1062.833 128.941 1060.325 132.886 1058.132 135.277 C 1057.029 136.496 1056.03 137.364 1054.97 138.241 C 1054.09 138.907 1053.063 139.654 1052.23 140.16 C 1048.803 142.256 1046.213 143.206 1043.809 144.053 C 1041.383 144.895 1039.222 145.469 1037.126 145.98 C 1035.042 146.477 1033.026 146.902 1031.078 147.256 C 1027.164 147.982 1023.415 148.526 1019.714 149.001 C 1004.987 150.827 990.908 151.732 976.815 152.62 C 948.704 154.311 920.911 155.478 893.158 157.126 C 837.699 160.374 782.503 164.881 727.859 172.794 C 673.244 180.634 619.137 191.739 566.831 208.226 C 540.693 216.473 515.065 226.182 490.292 237.611 C 465.532 249.047 441.651 262.3 419.329 277.743 C 396.998 293.158 376.266 310.823 357.973 330.76 C 353.367 335.723 348.99 340.859 344.714 346.131 C 340.491 351.482 336.208 356.796 332.239 362.351 C 328.105 367.786 324.362 373.501 320.461 379.111 C 316.802 384.881 312.992 390.564 309.569 396.488 C 281.468 443.492 261.97 495.716 250.065 549.705 C 244.143 576.722 239.876 604.167 237.24 631.822 C 234.608 659.476 233.464 687.316 233.497 715.194 C 233.499 716.171 232.707 716.967 231.73 716.968 C 230.786 716.97 230.014 716.228 229.957 715.299 C 228.338 687.366 228.043 659.302 229.376 631.257 C 230.775 603.219 233.708 575.191 238.604 547.422 C 243.627 519.687 250.404 492.174 259.563 465.354 C 261.778 458.623 264.301 452 266.77 445.348 C 269.428 438.772 272.023 432.163 274.955 425.693 C 277.735 419.155 280.884 412.78 283.932 406.355 C 287.18 400.03 290.345 393.653 293.863 387.461 C 297.216 381.176 300.971 375.119 304.583 368.972 C 308.44 362.98 312.151 356.882 316.268 351.051 C 320.22 345.104 324.501 339.389 328.731 333.634 C 333.054 327.91 337.547 322.255 342.253 316.817 C 361.021 294.966 382.527 275.572 405.63 258.552 C 428.75 241.518 453.529 226.948 479.107 214.258 C 504.698 201.554 531.177 190.873 558.065 181.646 C 584.958 172.407 612.294 164.677 639.852 158.128 C 667.41 151.561 695.177 146.094 723.052 141.549 C 778.805 132.461 834.937 126.806 890.903 122.775 C 918.866 120.725 946.841 119.045 974.451 117.095 C 988.207 116.084 1001.997 115.01 1014.963 113.249 C 1018.181 112.8 1021.335 112.299 1024.278 111.718 C 1025.761 111.435 1027.156 111.116 1028.462 110.789 C 1029.753 110.462 1030.962 110.112 1031.827 109.79 C 1032.717 109.5 1033.382 109.113 1032.917 109.358 C 1032.831 109.414 1032.487 109.611 1032.322 109.781 C 1031.914 110.083 1031.59 110.387 1031.068 110.958 C 1030.054 112.056 1028.391 114.429 1027.876 117.639 C 1027.247 120.886 1027.974 123.622 1028.515 124.955 C 1028.769 125.615 1028.963 126.009 1029.211 126.402 C 1029.293 126.605 1029.515 126.883 1029.571 126.969 C 1029.874 127.336 1029.365 126.756 1028.668 126.207 C 1027.264 125.019 1024.904 123.44 1022.438 121.98 C 1019.941 120.495 1017.211 119.029 1014.393 117.607 C 1008.727 114.766 1002.702 112.093 996.569 109.55 C 984.255 104.493 971.498 99.86 958.572 95.595 C 932.7 87.056 906.193 79.775 879.479 73.348 C 826.028 60.484 771.643 50.987 716.991 44.831 C 689.663 41.764 662.252 39.551 634.834 38.414 C 607.417 37.266 579.993 37.06 552.669 38.153 C 525.352 39.264 498.132 41.601 471.227 45.515 C 444.329 49.438 417.727 54.935 391.856 62.525 C 365.994 70.103 340.825 79.709 317.114 91.894 C 311.205 94.967 305.361 98.153 299.634 101.521 C 293.911 104.926 288.335 108.394 282.745 112.158 C 271.606 119.623 260.799 127.598 250.424 136.121 C 229.64 153.131 210.449 172.151 193.001 192.753 C 175.551 213.356 159.816 235.5 145.662 258.694 C 131.534 281.908 119.008 306.184 107.817 331.124 C 96.699 356.103 86.861 381.729 78.245 407.822 C 69.623 433.915 62.2 460.461 55.788 487.29 C 49.311 514.106 43.834 541.207 39.193 568.483 C 29.976 623.051 23.964 678.276 20.497 733.716 C 13.67 844.638 16.519 956.314 26.251 1067.315 C 36.039 1178.342 52.437 1288.834 74.678 1398.084 C 80.214 1425.402 86.255 1452.614 92.544 1479.763 C 98.923 1506.888 105.626 1533.935 112.789 1560.852 C 127.131 1614.667 142.972 1668.112 161.399 1720.461 C 170.664 1746.571 180.473 1772.579 191.964 1797.286 C 194.859 1803.427 197.866 1809.484 201.082 1815.208 C 202.689 1818.063 204.352 1820.833 206.059 1823.39 C 207.738 1825.908 209.587 1828.313 211.038 1829.718 C 211.672 1830.401 212.406 1830.665 211.455 1830.177 C 211.091 1829.994 210.758 1829.891 210.008 1829.726 C 209.431 1829.609 208.296 1829.58 207.48 1829.676 C 206.569 1829.789 205.733 1830.135 205.002 1830.449 C 204.194 1830.913 203.732 1831.248 203.359 1831.565 C 202.908 1832.056 202.802 1832.119 202.65 1832.315 C 202.486 1832.597 202.478 1832.556 202.467 1832.544 C 202.452 1832.566 202.469 1832.581 202.515 1832.383 C 202.554 1832.234 202.605 1832.136 202.662 1831.961 C 202.884 1831.1 203.167 1830 203.354 1828.632 C 204.175 1823.213 204.281 1816.446 204.207 1809.849 C 203.983 1796.474 203.001 1782.687 201.931 1768.918 C 200.83 1755.131 199.527 1741.288 198.196 1727.427 C 195.593 1699.693 192.732 1671.887 190.246 1644.024 C 180.012 1532.601 173.776 1420.157 178.644 1307.551 C 180.986 1251.271 186.136 1194.967 195.351 1139.125 C 199.976 1111.213 205.724 1083.44 212.752 1055.938 C 219.771 1028.436 228.201 1001.226 238.353 974.589 C 248.508 947.965 260.297 921.856 274.346 896.89 C 288.37 871.93 304.495 848.02 323.053 826.041 C 341.604 804.076 362.513 784.004 385.557 766.749 C 408.147 749.968 431.195 733.672 455.358 718.855 C 479.546 704.136 504.765 690.685 531.462 680.527 C 558.075 670.272 586.001 663.136 614.3 660.09 C 642.589 656.923 671.058 657.457 699.044 660.49 C 713.059 661.893 726.946 664.159 740.738 666.718 C 754.548 669.21 768.194 672.421 781.79 675.736 C 782.74 675.966 783.323 676.924 783.091 677.876 C 782.869 678.79 781.975 679.363 781.061 679.201 L 781.036 679.196 Z " fill="rgb(68,68,69)"/><path d=" M 741.15 1167.386 C 739.885 1162.527 738.642 1157.678 737.325 1152.867 C 736.012 1148.055 734.561 1143.297 733.078 1138.6 C 730.058 1129.28 726.475 1120.02 721.408 1112.684 C 720.806 1111.742 720.101 1110.934 719.46 1110.065 C 718.75 1109.285 718.095 1108.442 717.348 1107.759 C 715.914 1106.299 714.381 1105.097 712.778 1104.189 C 709.619 1102.284 706.164 1101.539 702.347 1101.574 C 698.516 1101.663 694.424 1102.55 690.223 1103.946 C 686.065 1105.327 682.073 1107.157 678.275 1109.369 C 670.657 1113.755 663.837 1119.7 657.771 1126.487 C 651.696 1133.282 646.317 1140.904 641.541 1148.99 C 636.764 1157.084 632.461 1165.57 628.665 1174.358 C 624.859 1183.135 621.369 1192.122 618.276 1201.293 C 612.106 1219.636 606.962 1238.477 602.752 1257.6 C 598.435 1276.7 595.017 1296.07 592.001 1315.529 C 589.076 1335.008 586.686 1354.604 584.549 1374.251 C 583.472 1384.074 582.535 1393.919 581.571 1403.769 C 580.684 1413.625 579.811 1423.492 579.023 1433.373 C 575.936 1472.893 573.573 1512.629 573.243 1552.467 C 572.866 1592.291 574.468 1632.245 579.525 1671.774 C 580.811 1681.649 582.205 1691.511 583.967 1701.306 C 585.684 1711.105 587.59 1720.869 589.851 1730.539 C 590.957 1735.379 592.153 1740.195 593.381 1744.998 C 594.669 1749.784 595.999 1754.556 597.443 1759.284 C 600.267 1768.764 603.538 1778.081 607.247 1787.152 C 610.951 1796.216 615.255 1804.998 620.253 1813.123 C 625.286 1821.169 631.176 1828.702 638.094 1833.729 C 639.799 1835.021 641.592 1836.022 643.368 1836.941 C 645.174 1837.733 646.969 1838.485 648.79 1838.838 C 652.641 1839.728 655.506 1839.367 657.694 1838.097 C 659.925 1836.867 662.1 1834.209 663.912 1830.698 C 665.731 1827.203 667.128 1822.987 668.268 1818.621 C 670.478 1809.795 671.657 1800.234 672.46 1790.606 C 673.244 1780.954 673.622 1771.144 673.838 1761.296 C 674.041 1751.44 674.031 1741.53 673.957 1731.595 C 673.928 1721.658 673.812 1711.694 673.646 1701.71 C 672.901 1661.77 672.463 1621.554 673.065 1581.16 C 673.687 1540.773 675.329 1500.153 679.978 1459.473 C 684.642 1418.83 692.287 1377.986 706.367 1338.3 C 709.923 1328.406 713.892 1318.599 718.377 1308.956 C 722.807 1299.291 727.862 1289.838 733.499 1280.662 C 739.091 1271.468 745.384 1262.604 752.247 1254.136 C 759.183 1245.716 766.781 1237.754 775.09 1230.517 C 783.355 1223.244 792.315 1216.695 801.796 1211.046 C 804.187 1209.682 806.571 1208.246 809.003 1207.016 L 816.296 1203.294 C 818.748 1202.098 821.269 1201.045 823.752 1199.923 C 826.223 1198.769 828.77 1197.801 831.318 1196.84 C 836.365 1194.783 841.587 1193.247 846.755 1191.605 C 851.997 1190.219 857.218 1188.773 862.521 1187.769 C 873.086 1185.605 883.76 1184.171 894.408 1183.699 C 915.706 1182.516 936.797 1184.402 957.248 1188.157 C 967.456 1190.142 977.567 1192.408 987.473 1195.263 C 997.367 1198.144 1007.159 1201.256 1016.745 1204.832 C 1055.17 1218.962 1091.136 1237.981 1125.018 1259.734 C 1125.844 1260.265 1126.084 1261.363 1125.554 1262.189 C 1125.073 1262.937 1124.123 1263.201 1123.336 1262.852 C 1086.679 1246.607 1049.421 1232.073 1011.33 1222.117 C 1001.827 1219.58 992.235 1217.531 982.651 1215.716 C 973.069 1213.874 963.449 1212.517 953.847 1211.49 C 934.646 1209.513 915.445 1209.327 896.785 1211.584 C 887.445 1212.645 878.288 1214.51 869.339 1216.867 C 864.842 1217.986 860.481 1219.498 856.102 1220.918 C 851.812 1222.576 847.494 1224.139 843.341 1226.077 C 841.24 1226.989 839.142 1227.9 837.125 1228.982 C 835.095 1230.034 833.026 1231.005 831.028 1232.11 L 825.094 1235.529 C 823.103 1236.651 821.258 1237.916 819.35 1239.125 C 811.877 1244.158 804.771 1249.72 798.253 1255.984 C 785.179 1268.459 774.103 1283.199 764.907 1299.312 C 755.752 1315.451 748.169 1332.788 742.057 1350.83 C 735.838 1368.84 730.928 1387.5 726.821 1406.443 C 722.698 1425.396 719.51 1444.675 716.79 1464.1 C 711.493 1502.985 708.441 1542.491 706.525 1582.216 C 704.558 1621.956 703.97 1661.923 702.069 1702.141 C 701.605 1712.196 701.09 1722.274 700.485 1732.37 C 699.817 1742.47 699.025 1752.588 698.041 1762.739 C 697.043 1772.895 695.858 1783.076 694.153 1793.317 C 692.429 1803.554 690.352 1813.847 686.825 1824.242 C 685.015 1829.439 682.897 1834.684 679.675 1839.866 C 678.053 1842.447 676.159 1845.016 673.775 1847.407 C 671.402 1849.791 668.467 1851.997 665.059 1853.508 C 661.666 1855.039 657.889 1855.778 654.36 1855.777 L 651.75 1855.666 L 649.247 1855.334 C 648.428 1855.202 647.679 1855.001 646.897 1854.832 C 646.119 1854.656 645.346 1854.481 644.603 1854.22 C 641.55 1853.359 638.762 1852.003 636.093 1850.562 C 633.509 1849.023 631.039 1847.354 628.858 1845.475 C 620.026 1837.996 613.965 1828.961 608.871 1819.796 C 606.318 1815.201 604.039 1810.523 601.934 1805.798 C 599.858 1801.062 597.961 1796.284 596.147 1791.493 C 589.063 1772.263 583.878 1752.632 579.412 1732.909 C 575.019 1713.169 571.387 1693.314 568.215 1673.394 C 561.94 1633.549 557.152 1593.479 553.715 1553.2 C 550.413 1512.926 548.53 1472.416 549.52 1431.868 C 550.431 1391.327 554.073 1350.761 560.889 1310.554 C 567.683 1270.368 577.147 1230.323 592.41 1191.713 C 596.256 1182.083 600.431 1172.526 605.26 1163.216 C 610.043 1153.894 615.34 1144.74 621.424 1135.984 C 627.535 1127.257 634.367 1118.856 642.317 1111.322 C 650.297 1103.859 659.348 1097.123 669.649 1092.459 C 674.777 1090.121 680.163 1088.278 685.677 1087.047 C 691.127 1085.813 697.061 1085.083 703.251 1085.683 C 706.343 1085.979 709.497 1086.707 712.525 1087.818 C 715.568 1088.916 718.419 1090.584 720.935 1092.499 C 723.466 1094.428 725.629 1096.674 727.434 1099.031 C 728.392 1100.191 729.152 1101.421 729.978 1102.622 C 730.691 1103.859 731.475 1105.074 732.083 1106.327 C 734.698 1111.299 736.437 1116.398 737.845 1121.453 C 739.249 1126.514 740.303 1131.568 741.187 1136.61 C 742.09 1141.646 742.726 1146.693 743.279 1151.727 C 743.837 1156.759 744.299 1161.785 744.647 1166.818 C 744.715 1167.8 743.976 1168.648 742.995 1168.716 C 742.127 1168.775 741.361 1168.197 741.15 1167.386 Z " fill="rgb(68,68,69)"/><path d=" M 1587.58 1468.839 C 1556.585 1455.218 1523.103 1447.838 1489.965 1448.851 C 1473.411 1449.186 1456.974 1451.684 1440.957 1455.591 C 1424.963 1459.631 1409.367 1465.173 1394.488 1472.172 C 1387.06 1475.697 1379.777 1479.501 1372.707 1483.652 C 1365.675 1487.863 1358.757 1492.26 1352.197 1497.126 C 1348.851 1499.47 1345.69 1502.049 1342.455 1504.525 C 1340.87 1505.8 1339.329 1507.132 1337.764 1508.429 L 1335.425 1510.385 L 1333.163 1512.423 C 1327.041 1517.765 1321.4 1523.581 1315.971 1529.522 C 1310.581 1535.509 1305.637 1541.818 1301.04 1548.312 C 1296.495 1554.844 1292.507 1561.674 1288.998 1568.664 C 1285.488 1575.661 1282.768 1582.93 1280.581 1590.255 C 1280.11 1592.106 1279.462 1593.907 1279.12 1595.793 L 1278.004 1601.421 C 1277.085 1605.136 1276.89 1608.985 1276.428 1612.775 L 1276.109 1615.625 L 1276.051 1618.5 L 1275.924 1624.246 C 1275.8 1626.158 1276.004 1628.082 1276.114 1629.999 L 1276.463 1635.756 C 1276.824 1639.588 1277.49 1643.408 1277.964 1647.231 C 1278.772 1651.026 1279.57 1654.82 1280.444 1658.6 C 1284.371 1673.669 1290.659 1688.235 1298.543 1701.969 C 1314.347 1729.482 1336.661 1753.49 1362.223 1772.862 C 1387.936 1792.083 1417.167 1806.643 1447.882 1814.754 C 1463.233 1818.812 1478.962 1821.151 1494.695 1821.654 C 1498.627 1821.675 1502.576 1821.963 1506.491 1821.633 L 1512.376 1821.346 L 1515.323 1821.208 L 1518.245 1820.866 L 1524.092 1820.198 C 1526.043 1819.978 1528.015 1819.807 1529.889 1819.381 L 1535.591 1818.302 L 1538.445 1817.771 C 1539.39 1817.568 1540.311 1817.276 1541.245 1817.035 C 1556.223 1813.289 1570.593 1807.224 1583.715 1798.83 C 1596.903 1790.532 1608.811 1779.976 1619.384 1767.993 C 1629.959 1755.998 1639.082 1742.485 1646.912 1728.137 C 1654.757 1713.789 1661.321 1698.593 1666.769 1682.932 C 1677.68 1651.586 1684.241 1618.489 1687.477 1585.055 C 1690.579 1551.584 1690.292 1517.705 1686.828 1484.146 C 1685.009 1467.377 1682.512 1450.668 1679.068 1434.153 C 1675.668 1417.632 1671.519 1401.256 1666.292 1385.235 C 1661.137 1369.196 1655.104 1353.451 1648.027 1338.212 C 1640.995 1322.96 1632.895 1308.221 1623.647 1294.309 C 1614.427 1280.382 1603.916 1267.366 1592.193 1255.702 C 1580.424 1244.098 1567.365 1233.895 1553.129 1225.966 C 1538.919 1218.013 1523.572 1212.339 1507.735 1209.46 C 1491.9 1206.541 1475.644 1206.511 1459.688 1208.718 C 1443.63 1210.861 1428.318 1215.513 1413.684 1222.256 C 1399.084 1229.001 1385.306 1237.678 1372.294 1247.574 C 1359.258 1257.454 1347.01 1268.565 1335.048 1280.229 C 1322.987 1291.854 1311.468 1304.119 1298.675 1316.369 C 1295.45 1319.428 1292.121 1322.483 1288.528 1325.503 C 1284.934 1328.52 1281.059 1331.515 1276.441 1334.347 C 1274.069 1335.744 1271.608 1337.135 1268.572 1338.307 C 1265.571 1339.468 1262.103 1340.491 1257.979 1340.784 C 1253.894 1341.1 1249.082 1340.44 1244.89 1338.614 C 1243.878 1338.147 1242.81 1337.674 1241.885 1337.124 C 1240.962 1336.56 1240.051 1336.006 1239.162 1335.364 C 1238.277 1334.678 1237.408 1333.962 1236.564 1333.22 C 1235.745 1332.471 1235.035 1331.66 1234.299 1330.848 C 1231.515 1327.582 1229.6 1324.001 1228.399 1320.682 C 1227.217 1317.369 1226.468 1314.135 1226.122 1311.166 C 1225.358 1305.147 1225.594 1299.72 1226.204 1294.579 C 1227.507 1284.341 1230.255 1275.119 1233.552 1266.284 C 1240.259 1248.693 1249.401 1232.77 1259.899 1217.936 C 1270.428 1203.13 1282.381 1189.461 1295.482 1177.002 C 1321.682 1152.091 1352.551 1132.064 1386.046 1118.199 C 1402.802 1111.303 1420.172 1105.874 1437.873 1102.089 C 1446.714 1100.151 1455.641 1098.635 1464.608 1097.532 C 1469.087 1096.922 1473.583 1096.54 1478.076 1096.099 L 1491.868 1095.336 C 1510.322 1094.809 1529.14 1096.442 1547.453 1100.943 C 1565.763 1105.388 1583.506 1112.565 1599.782 1122.034 C 1616.143 1131.418 1630.741 1143.36 1643.762 1156.413 C 1656.765 1169.516 1668.23 1183.818 1678.229 1198.849 C 1698.235 1228.946 1713.228 1261.316 1725.235 1294.267 C 1737.262 1327.244 1746.541 1360.839 1754.129 1394.622 C 1769.345 1462.206 1778.01 1530.48 1785.179 1598.447 C 1788.806 1632.419 1791.819 1666.405 1795.694 1700.002 C 1797.644 1716.781 1799.777 1733.506 1803.003 1749.644 C 1806.241 1765.78 1810.618 1781.709 1817.502 1795.931 C 1820.992 1802.955 1825.102 1809.599 1830.184 1814.799 C 1835.241 1820.028 1841.17 1823.732 1847.74 1824.882 C 1854.291 1826.148 1861.533 1824.682 1868.417 1821.551 C 1875.327 1818.4 1881.847 1813.646 1887.849 1808.231 C 1899.87 1797.298 1910.044 1783.823 1918.853 1769.569 C 1927.674 1755.269 1935.197 1740.062 1941.76 1724.409 C 1942.135 1723.504 1943.172 1723.076 1944.077 1723.451 C 1944.927 1723.804 1945.352 1724.757 1945.088 1725.62 C 1939.954 1741.971 1933.64 1758.041 1925.721 1773.443 C 1921.74 1781.131 1917.391 1788.672 1912.494 1795.925 C 1910.067 1799.563 1907.473 1803.111 1904.739 1806.577 C 1902.016 1810.051 1899.11 1813.413 1895.987 1816.618 C 1889.753 1823.024 1882.758 1828.988 1874.417 1833.51 C 1870.249 1835.758 1865.73 1837.616 1860.883 1838.788 C 1856.05 1839.973 1850.858 1840.417 1845.694 1839.818 C 1840.534 1839.253 1835.449 1837.719 1830.877 1835.415 C 1826.301 1833.103 1822.228 1830.102 1818.624 1826.802 C 1811.387 1820.161 1806.041 1812.357 1801.49 1804.399 C 1792.584 1788.35 1786.98 1771.371 1782.525 1754.358 C 1780.32 1745.832 1778.499 1737.259 1776.872 1728.764 C 1775.236 1720.255 1773.734 1711.76 1772.346 1703.281 C 1766.829 1669.354 1762.297 1635.577 1757.407 1601.913 C 1752.498 1568.265 1747.446 1534.733 1741.464 1501.455 C 1735.565 1468.169 1728.773 1435.131 1720.635 1402.585 C 1712.42 1370.068 1702.927 1337.988 1691.038 1307.109 C 1679.07 1276.315 1664.959 1246.495 1646.861 1219.987 C 1628.858 1193.55 1606.926 1170.231 1580.536 1154.816 C 1554.285 1139.25 1523.921 1131.827 1492.672 1132.427 L 1480.931 1132.923 C 1476.94 1133.271 1472.938 1133.548 1468.966 1134.042 C 1461.008 1134.931 1453.088 1136.103 1445.254 1137.689 C 1429.563 1140.754 1414.188 1145.271 1399.32 1151.083 C 1369.603 1162.738 1341.96 1179.861 1318.32 1201.478 C 1306.507 1212.277 1295.69 1224.181 1286.211 1236.973 C 1276.766 1249.747 1268.604 1263.513 1262.837 1277.671 C 1260.004 1284.714 1257.789 1291.928 1256.797 1298.593 C 1256.304 1301.895 1256.159 1305.05 1256.403 1307.499 C 1256.481 1308.769 1256.745 1309.704 1256.927 1310.422 C 1257.127 1311.127 1257.33 1311.317 1257.256 1311.327 C 1257.251 1311.29 1257.203 1311.322 1257.169 1311.291 C 1257.141 1311.235 1257.088 1311.201 1257.019 1311.2 C 1256.989 1311.184 1257.001 1311.168 1256.969 1311.19 C 1256.945 1311.206 1256.879 1311.118 1256.813 1311.137 C 1256.526 1311.024 1256.042 1311.029 1256.203 1311.064 C 1256.335 1311.093 1257.029 1311.007 1258.006 1310.667 C 1258.97 1310.359 1260.276 1309.715 1261.599 1309.004 C 1264.312 1307.486 1267.317 1305.414 1270.333 1303.055 C 1273.353 1300.702 1276.41 1298.108 1279.469 1295.412 C 1291.72 1284.539 1304.026 1272.398 1316.944 1260.825 C 1329.897 1249.245 1343.479 1238.005 1358.089 1227.927 C 1372.668 1217.836 1388.324 1208.916 1405.047 1202.172 C 1413.416 1198.835 1422.001 1195.952 1430.804 1193.84 C 1435.196 1192.754 1439.637 1191.863 1444.102 1191.125 C 1448.563 1190.462 1453.025 1190.01 1457.478 1189.454 C 1475.361 1187.794 1493.618 1188.664 1511.177 1192.729 C 1528.73 1196.782 1545.487 1203.793 1560.666 1213.063 C 1575.864 1222.339 1589.541 1233.747 1601.617 1246.47 C 1613.757 1259.152 1624.279 1273.171 1633.636 1287.807 C 1652.269 1317.187 1665.983 1349.18 1676.491 1381.984 C 1686.931 1414.852 1693.853 1448.699 1698.179 1482.851 C 1700.264 1499.942 1701.664 1517.124 1702.263 1534.351 C 1702.927 1551.579 1702.862 1568.853 1701.937 1586.117 C 1700.016 1620.622 1695.038 1655.166 1685.39 1688.86 C 1680.544 1705.686 1674.469 1722.274 1666.804 1738.289 C 1659.152 1754.295 1649.931 1769.767 1638.705 1783.994 C 1627.525 1798.233 1614.219 1811.13 1599.052 1821.76 C 1583.865 1832.322 1566.808 1840.56 1548.852 1845.581 C 1530.819 1850.661 1512.525 1852.697 1494.159 1852.584 C 1475.815 1852.481 1457.587 1849.923 1439.951 1845.464 C 1404.642 1836.489 1371.792 1819.831 1343.165 1797.951 C 1314.585 1776.002 1289.978 1748.638 1272.282 1716.704 C 1263.486 1700.734 1256.581 1683.541 1252.31 1665.504 C 1248.018 1647.492 1246.721 1628.52 1249 1609.868 C 1249.683 1605.218 1250.137 1600.54 1251.359 1595.986 L 1252.957 1589.123 C 1253.471 1586.832 1254.302 1584.617 1254.965 1582.365 C 1257.89 1573.446 1261.54 1564.83 1265.978 1556.745 C 1270.413 1548.662 1275.354 1540.929 1280.823 1533.667 C 1286.349 1526.457 1292.174 1519.52 1298.506 1513.127 C 1323.758 1487.477 1354.209 1467.994 1386.927 1454.759 C 1419.665 1441.676 1454.996 1434.665 1490.123 1436.426 C 1525.231 1438.065 1559.353 1448.635 1589.173 1465.676 C 1590.024 1466.16 1590.32 1467.244 1589.834 1468.094 C 1589.382 1468.887 1588.4 1469.195 1587.58 1468.839 Z " fill="rgb(68,68,69)"/><path d=" M 2444.989 1841.197 C 2415.227 1847.326 2384.638 1849.833 2353.971 1849.437 C 2323.3 1848.996 2292.522 1845.412 2262.308 1838.657 L 2256.633 1837.426 L 2251.008 1835.981 L 2239.766 1832.998 C 2236.012 1832.026 2232.343 1830.751 2228.626 1829.637 C 2224.928 1828.459 2221.183 1827.399 2217.521 1826.106 C 2202.898 1820.853 2188.311 1815.322 2174.297 1808.432 C 2170.789 1806.728 2167.228 1805.127 2163.762 1803.33 C 2160.312 1801.498 2156.861 1799.663 2153.44 1797.776 L 2148.298 1794.963 L 2143.278 1791.924 C 2139.923 1789.912 2136.597 1787.851 2133.284 1785.771 C 2120.252 1777.099 2107.54 1767.869 2095.895 1757.349 C 2092.976 1754.729 2089.954 1752.244 2087.193 1749.452 L 2078.848 1741.171 C 2076.033 1738.457 2073.48 1735.464 2070.856 1732.561 C 2068.261 1729.625 2065.584 1726.783 2063.124 1723.734 C 2058.299 1717.552 2053.241 1711.62 2048.865 1705.129 C 2046.634 1701.924 2044.298 1698.812 2042.179 1695.539 L 2035.968 1685.643 C 2033.832 1682.401 2032.01 1678.952 2030.131 1675.552 C 2028.301 1672.123 2026.279 1668.821 2024.567 1665.339 C 2021.235 1658.325 2017.598 1651.512 2014.763 1644.304 C 2008.489 1630.195 2003.731 1615.501 1999.514 1600.756 C 1991.6 1571.105 1987.397 1540.459 1987.909 1509.788 C 1988.07 1494.46 1989.129 1479.136 1991.013 1463.885 C 1992.912 1448.64 1995.552 1433.447 1999.162 1418.455 C 2002.699 1403.447 2007.011 1388.583 2012.2 1374.004 C 2017.347 1359.409 2023.283 1345.063 2030.067 1331.107 C 2043.569 1303.15 2060.397 1276.801 2079.538 1252.21 C 2098.696 1227.629 2120.268 1204.758 2144.297 1184.534 C 2168.265 1164.259 2194.796 1146.775 2223.242 1132.968 C 2251.7 1119.221 2282.077 1109.184 2313.243 1103.691 C 2344.391 1098.137 2376.287 1097.111 2407.446 1100.705 C 2411.342 1101.144 2415.219 1101.73 2419.095 1102.237 C 2422.972 1102.756 2426.812 1103.535 2430.661 1104.192 L 2433.562 1104.71 C 2435.014 1104.981 2436.051 1105.246 2437.149 1105.526 C 2439.277 1106.091 2441.292 1106.698 2443.303 1107.366 C 2447.317 1108.715 2451.28 1110.225 2455.342 1112.259 C 2457.374 1113.279 2459.437 1114.418 2461.579 1115.85 C 2463.707 1117.299 2465.986 1119.019 2468.337 1121.788 C 2469.51 1123.256 2470.711 1124.941 2471.639 1127.324 C 2472.561 1129.679 2473.022 1132.649 2472.65 1135.456 C 2472.281 1138.3 2471.225 1140.54 2470.109 1142.384 C 2468.994 1144.086 2467.772 1145.461 2466.634 1146.501 C 2464.328 1148.615 2462.14 1150.009 2460.068 1151.15 C 2457.984 1152.295 2455.962 1153.233 2453.978 1154.042 C 2450.005 1155.666 2446.149 1156.922 2442.297 1157.999 C 2426.965 1162.234 2411.878 1164.377 2396.766 1166.325 C 2381.651 1168.112 2366.557 1169.36 2351.431 1170.092 C 2350.449 1170.139 2349.615 1169.38 2349.568 1168.398 C 2349.525 1167.544 2350.099 1166.8 2350.896 1166.591 C 2365.501 1162.746 2380.08 1159.005 2394.458 1154.867 C 2401.654 1152.844 2408.799 1150.706 2415.816 1148.38 C 2422.814 1146.023 2429.767 1143.635 2436.286 1140.812 C 2439.526 1139.395 2442.693 1137.932 2445.514 1136.326 C 2446.932 1135.533 2448.233 1134.697 2449.352 1133.876 C 2450.49 1133.066 2451.349 1132.208 2451.72 1131.68 C 2451.932 1131.413 2451.869 1131.294 2451.774 1131.418 C 2451.557 1131.621 2451.28 1132.11 2451.101 1133.07 C 2450.916 1134.002 2451.068 1135.072 2451.291 1135.684 C 2451.517 1136.312 2451.588 1136.465 2451.557 1136.497 C 2451.39 1136.467 2450.628 1135.905 2449.554 1135.394 C 2448.487 1134.865 2447.18 1134.316 2445.778 1133.81 C 2442.957 1132.802 2439.779 1131.896 2436.564 1131.185 C 2434.958 1130.826 2433.324 1130.516 2431.781 1130.273 C 2431.039 1130.161 2430.233 1130.056 2429.824 1130.041 L 2427.132 1129.842 C 2423.515 1129.604 2419.916 1129.237 2416.304 1129.069 C 2412.69 1128.927 2409.085 1128.704 2405.479 1128.622 C 2376.624 1127.87 2347.929 1130.924 2320.136 1137.421 C 2292.343 1143.961 2265.468 1153.974 2239.998 1166.882 C 2189.073 1192.69 2143.19 1229.229 2105.499 1273.345 C 2086.668 1295.418 2070.029 1319.399 2055.214 1344.521 C 2047.843 1357.107 2040.917 1369.996 2034.624 1383.221 C 2028.375 1396.464 2022.669 1410.007 2017.78 1423.875 C 2008.011 1451.589 2001.461 1480.672 1999.823 1510.171 C 1997.972 1539.648 2001.723 1569.395 2010.473 1597.523 C 2010.737 1598.405 2010.97 1599.294 2011.258 1600.168 L 2012.205 1602.765 L 2014.135 1607.939 C 2015.47 1611.368 2016.573 1614.879 2018.168 1618.202 L 2022.735 1628.233 C 2023.453 1629.922 2024.343 1631.532 2025.206 1633.153 L 2027.819 1637.999 C 2031.14 1644.535 2035.225 1650.654 2039.1 1656.839 C 2040.03 1658.409 2041.17 1659.853 2042.216 1661.351 L 2045.426 1665.795 C 2047.572 1668.747 2049.649 1671.735 2052.032 1674.514 L 2058.933 1682.977 C 2061.271 1685.759 2063.816 1688.381 2066.231 1691.088 C 2070.977 1696.574 2076.368 1701.495 2081.462 1706.615 C 2092.137 1716.422 2102.999 1725.938 2114.629 1734.508 C 2160.568 1769.315 2213.102 1795.522 2269.237 1811.96 C 2297.279 1820.238 2326.106 1826.34 2355.412 1830.508 C 2384.731 1834.723 2414.506 1836.765 2444.681 1837.67 C 2445.665 1837.698 2446.439 1838.517 2446.412 1839.501 C 2446.388 1840.344 2445.779 1841.033 2444.989 1841.197 Z " fill="rgb(68,68,69)"/><path d=" M 3063.195 820.907 C 3030.133 817.777 2997.111 813.717 2964.063 811.954 C 2947.559 811.09 2931.027 810.734 2914.719 812.043 C 2898.446 813.35 2882.335 816.301 2867.562 822.254 L 2862.166 824.751 L 2859.471 825.992 L 2856.91 827.475 L 2851.794 830.42 L 2846.996 833.832 L 2844.601 835.531 C 2843.846 836.152 2843.121 836.816 2842.379 837.453 L 2837.945 841.293 C 2836.551 842.663 2835.239 844.126 2833.882 845.531 C 2832.539 846.953 2831.139 848.317 2829.993 849.925 C 2820.058 862.083 2812.904 876.481 2807.697 891.611 C 2802.497 906.776 2799.059 922.651 2796.515 938.697 C 2795.453 946.777 2794.258 954.818 2793.625 962.979 C 2792.74 971.088 2792.347 979.279 2791.845 987.445 C 2785.547 1119.71 2786.988 1252.324 2793.102 1384.628 C 2794.599 1417.715 2796.417 1450.791 2798.466 1483.866 C 2800.503 1516.94 2802.684 1550.014 2805.028 1583.107 C 2807.337 1616.205 2809.847 1649.307 2811.997 1682.527 C 2813.084 1699.138 2814.114 1715.776 2814.96 1732.493 C 2815.792 1749.216 2816.478 1765.989 2816.555 1783.051 C 2816.579 1791.595 2816.45 1800.204 2815.89 1809.083 C 2815.599 1813.531 2815.199 1818.05 2814.531 1822.763 C 2814.187 1825.128 2813.786 1827.533 2813.227 1830.067 C 2812.686 1832.587 2812.013 1835.217 2810.986 1838.118 C 2809.925 1841.016 2808.652 1844.201 2805.957 1847.992 C 2805.661 1848.433 2805.221 1848.964 2804.819 1849.452 C 2804.394 1849.953 2804.014 1850.416 2803.526 1850.923 C 2802.47 1851.971 2801.501 1852.929 2800.089 1853.932 C 2798.832 1854.897 2797.206 1855.806 2795.578 1856.561 C 2793.856 1857.276 2792.041 1857.891 2790.208 1858.179 C 2788.324 1858.545 2786.619 1858.574 2784.853 1858.538 C 2783.309 1858.424 2781.563 1858.224 2780.292 1857.883 C 2779.616 1857.72 2778.922 1857.542 2778.272 1857.347 L 2776.54 1856.727 C 2775.323 1856.286 2774.466 1855.835 2773.47 1855.355 C 2772.489 1854.874 2771.766 1854.412 2770.913 1853.915 C 2770.427 1853.628 2770.3 1853.53 2770.034 1853.358 L 2769.318 1852.886 L 2766.452 1850.994 C 2758.846 1845.893 2751.635 1840.216 2744.891 1834.076 C 2731.392 1821.793 2719.819 1807.687 2710.078 1792.71 C 2700.355 1777.705 2692.398 1761.858 2685.699 1745.697 C 2672.442 1713.285 2664.246 1679.695 2658.399 1646.145 C 2652.618 1612.55 2649.28 1578.851 2647.242 1545.243 C 2645.265 1511.624 2644.631 1478.08 2644.652 1444.632 C 2644.687 1411.18 2645.385 1377.82 2646.378 1344.539 C 2648.451 1277.988 2651.586 1211.698 2652.455 1145.751 C 2652.867 1112.792 2652.639 1079.907 2650.76 1047.343 C 2649.813 1031.068 2648.405 1014.881 2646.363 998.897 C 2644.324 982.915 2641.568 967.129 2637.646 951.886 C 2633.706 936.684 2628.642 921.922 2621.558 908.846 C 2618.01 902.333 2614.051 896.167 2609.454 890.788 C 2607.184 888.068 2604.743 885.566 2602.206 883.211 C 2600.92 882.061 2599.616 880.933 2598.276 879.867 L 2596.24 878.304 C 2595.605 877.793 2594.681 877.19 2593.915 876.636 C 2568.258 858.444 2539.129 844.825 2508.661 834.641 C 2478.123 824.461 2446.313 817.632 2413.878 812.241 L 2389.332 808.21 C 2381.042 806.809 2372.771 805.476 2363.897 803.32 C 2361.653 802.752 2359.391 802.153 2356.926 801.31 C 2354.449 800.431 2351.899 799.547 2348.57 797.48 C 2348.141 797.2 2347.749 796.952 2347.304 796.633 C 2346.823 796.263 2346.346 795.88 2345.883 795.485 C 2345.45 795.141 2344.92 794.627 2344.389 794.041 C 2343.854 793.431 2343.418 793.003 2342.874 792.193 C 2342.344 791.414 2341.861 790.594 2341.435 789.762 C 2340.998 788.807 2340.631 787.748 2340.353 786.706 C 2339.847 784.631 2339.76 782.2 2340.111 780.396 C 2340.264 779.39 2340.519 778.379 2340.628 778.147 L 2341.077 776.844 C 2341.398 775.991 2341.694 775.094 2342.082 774.302 C 2342.481 773.522 2342.896 772.747 2343.325 771.983 C 2343.54 771.604 2343.753 771.213 2343.978 770.849 L 2344.693 769.845 C 2348.574 764.413 2353.135 761.056 2357.453 758.358 C 2361.817 755.697 2366.143 753.691 2370.42 751.981 C 2378.972 748.636 2387.406 746.252 2395.791 744.248 C 2404.176 742.243 2412.517 740.598 2420.837 739.115 C 2437.473 736.176 2454.023 733.846 2470.526 731.649 C 2503.503 727.234 2536.354 723.29 2568.5 717.068 C 2584.534 713.93 2600.435 710.223 2615.45 704.878 C 2622.932 702.193 2630.15 699.013 2636.662 695.124 C 2643.066 691.183 2648.846 686.454 2652.098 680.751 C 2652.563 680.06 2652.891 679.326 2653.218 678.59 L 2653.735 677.494 L 2654.252 676.117 C 2654.962 674.285 2655.594 672.413 2656.224 670.534 C 2657.43 666.756 2658.561 662.929 2659.502 659.022 C 2661.443 651.23 2662.886 643.232 2664.077 635.169 C 2666.393 619.015 2667.696 602.572 2668.697 586.066 C 2669.689 569.551 2670.359 552.958 2671.292 536.336 C 2672.236 519.721 2673.384 503.057 2675.615 486.475 C 2677.943 469.94 2681.193 453.338 2687.515 437.733 C 2690.667 429.956 2694.74 422.491 2699.979 415.922 C 2705.27 409.406 2711.86 403.953 2719.326 400.297 C 2712.082 404.389 2705.934 410.149 2701.141 416.811 C 2696.371 423.505 2692.778 430.963 2690.099 438.715 C 2684.727 454.252 2682.381 470.674 2680.94 487.069 C 2678.141 519.956 2679.063 553.119 2678.509 586.436 C 2678.239 603.103 2677.698 619.849 2675.916 636.654 C 2675.005 645.056 2673.829 653.476 2672.084 661.873 C 2671.241 666.075 2670.185 670.262 2669.026 674.44 C 2668.417 676.523 2667.802 678.608 2667.092 680.678 L 2666.574 682.238 L 2665.857 683.999 C 2665.384 685.181 2664.887 686.35 2664.252 687.427 C 2661.897 691.86 2658.825 695.769 2655.421 699.034 C 2652.016 702.309 2648.35 705.131 2644.576 707.623 C 2636.995 712.522 2629.049 716.306 2621.024 719.518 C 2604.943 725.877 2588.533 730.274 2572.122 734.092 C 2539.266 741.582 2506.243 746.519 2473.557 751.951 C 2457.225 754.673 2440.943 757.376 2424.962 760.659 C 2416.977 762.304 2409.067 764.092 2401.356 766.158 C 2393.649 768.212 2386.138 770.606 2379.299 773.501 C 2375.905 774.958 2372.735 776.587 2370.06 778.327 C 2367.391 780.043 2365.33 781.98 2364.451 783.382 L 2364.255 783.638 C 2364.214 783.72 2364.198 783.796 2364.164 783.871 C 2364.103 784.021 2364.029 784.163 2363.939 784.298 C 2363.868 784.433 2363.902 784.551 2363.849 784.665 C 2363.831 784.721 2363.807 784.776 2363.781 784.829 C 2363.68 785.079 2363.867 784.583 2363.944 784.09 C 2364.058 783.302 2364.108 781.933 2363.796 780.859 C 2363.686 780.307 2363.471 779.747 2363.223 779.274 C 2363.068 778.882 2362.857 778.506 2362.598 778.169 C 2361.867 777.071 2361.31 776.893 2361.545 776.963 C 2361.746 777.087 2363.112 777.683 2364.562 778.116 C 2366.035 778.588 2367.8 779.019 2369.588 779.427 C 2376.889 781.033 2385.049 782.202 2393.158 783.371 L 2417.852 786.847 C 2451.009 791.594 2484.538 797.863 2517.229 808.142 C 2549.88 818.381 2581.893 832.495 2610.857 852.209 C 2611.788 852.855 2612.615 853.365 2613.626 854.12 L 2616.574 856.29 C 2618.511 857.767 2620.375 859.33 2622.201 860.92 C 2625.805 864.148 2629.208 867.563 2632.317 871.167 C 2638.61 878.338 2643.775 886.158 2648.277 894.147 C 2657.243 910.186 2663.179 927.033 2667.826 943.861 C 2672.426 960.722 2675.615 977.672 2678.033 994.587 C 2680.48 1011.505 2682.051 1028.412 2683.234 1045.269 C 2685.535 1078.993 2686.111 1112.559 2686.047 1145.999 C 2686 1179.441 2685.126 1212.764 2684.199 1246.007 L 2681.346 1345.518 C 2679.627 1411.697 2678.703 1477.755 2682.586 1543.142 C 2684.497 1575.813 2687.668 1608.308 2693.087 1640.185 C 2698.523 1672.022 2706.285 1703.312 2718.03 1732.489 C 2723.948 1747.03 2730.893 1761.007 2739.152 1773.933 C 2747.428 1786.834 2757.047 1798.641 2768.051 1808.783 C 2773.55 1813.854 2779.391 1818.508 2785.545 1822.694 L 2787.865 1824.249 L 2789.024 1825.012 C 2788.971 1824.967 2789.021 1825.037 2788.793 1824.916 C 2788.706 1824.88 2788.612 1824.855 2788.52 1824.84 C 2788.369 1824.784 2788.182 1824.723 2788.007 1824.689 C 2787.843 1824.663 2787.653 1824.632 2787.347 1824.57 C 2787.072 1824.525 2786.801 1824.509 2786.519 1824.51 C 2785.789 1824.434 2785.128 1824.528 2784.259 1824.644 C 2782.638 1824.921 2780.935 1825.758 2780.024 1826.436 C 2779.491 1826.873 2779.223 1827.057 2778.934 1827.403 C 2778.81 1827.542 2778.742 1827.587 2778.657 1827.698 C 2778.583 1827.785 2778.499 1827.938 2778.48 1827.934 C 2778.209 1828.35 2778.642 1827.704 2778.982 1826.703 C 2779.354 1825.697 2779.75 1824.306 2780.083 1822.767 C 2780.431 1821.252 2780.729 1819.563 2780.991 1817.821 C 2781.521 1814.321 2781.909 1810.57 2782.197 1806.737 C 2782.767 1799.053 2782.983 1791.05 2783.042 1782.993 C 2783.14 1766.849 2782.651 1750.428 2782.002 1733.982 C 2781.345 1717.526 2780.495 1701.01 2779.589 1684.478 L 2773.954 1585.066 C 2772.116 1551.88 2770.332 1518.664 2768.888 1485.418 C 2767.454 1452.174 2766.249 1418.908 2765.367 1385.627 C 2761.932 1252.499 2763.806 1119.126 2774.569 986.264 C 2775.374 977.88 2776.071 969.5 2777.275 961.134 C 2778.224 952.759 2779.75 944.417 2781.149 936.077 C 2784.39 919.444 2788.529 902.861 2794.757 886.836 C 2800.96 870.856 2809.359 855.337 2820.997 842.18 C 2822.349 840.459 2823.973 838.966 2825.54 837.429 C 2827.122 835.908 2828.656 834.34 2830.281 832.868 L 2835.428 828.752 C 2836.29 828.076 2837.136 827.377 2838.013 826.722 L 2840.772 824.93 L 2846.294 821.372 L 2852.106 818.35 L 2855.01 816.848 L 2858.025 815.607 L 2864.05 813.147 C 2880.411 807.384 2897.477 805.109 2914.299 804.497 C 2931.156 803.91 2947.887 804.982 2964.475 806.648 C 2981.065 808.369 2997.531 810.726 3013.963 813.194 C 3030.397 815.654 3046.79 818.307 3063.195 820.907 Z " fill="rgb(68,68,69)"/><path d=" M 2998.487 1317.466 C 3004.638 1303.662 3011.195 1290.002 3018.515 1276.727 C 3025.876 1263.476 3033.799 1250.508 3042.424 1237.971 C 3059.871 1213.066 3080.214 1189.917 3103.885 1170.272 C 3127.493 1150.609 3154.68 1134.784 3184.185 1124.754 C 3213.642 1114.591 3245.423 1110.908 3276.711 1113.512 C 3292.354 1114.902 3307.856 1117.936 3322.942 1122.378 C 3338.038 1126.81 3352.633 1132.882 3366.611 1140.109 C 3373.619 1143.701 3380.39 1147.726 3387.047 1151.934 C 3393.611 1156.276 3400.097 1160.761 3406.272 1165.65 C 3418.68 1175.353 3430.282 1186.102 3440.859 1197.798 C 3461.977 1221.218 3479.147 1248.235 3491.456 1277.353 C 3497.602 1291.914 3502.575 1306.976 3506.326 1322.343 L 3507.717 1328.111 L 3508.946 1333.699 L 3511.365 1344.854 C 3512.901 1352.301 3514.482 1359.743 3515.945 1367.202 C 3521.924 1397.017 3527.256 1426.919 3532.308 1456.808 C 3537.36 1486.695 3541.987 1516.594 3546.873 1546.327 C 3551.772 1576.037 3556.827 1605.664 3563.182 1634.54 C 3566.421 1648.931 3569.949 1663.214 3574.472 1676.692 C 3576.668 1683.479 3579.236 1689.942 3582 1696.108 L 3584.164 1700.611 L 3586.485 1704.852 C 3587.224 1706.278 3588.171 1707.621 3588.994 1709.011 C 3589.858 1710.372 3590.774 1711.639 3591.658 1712.949 C 3595.316 1717.929 3599.318 1722.253 3603.328 1724.896 C 3607.374 1727.585 3611.031 1728.792 3615.159 1728.839 C 3619.288 1728.881 3624.231 1727.559 3629.448 1725.041 C 3634.664 1722.562 3640.041 1718.943 3645.296 1714.817 C 3655.861 1706.476 3665.914 1696.121 3676.096 1685.259 C 3681.238 1679.797 3686.346 1674.198 3692.182 1668.389 C 3693.652 1666.937 3695.168 1665.471 3696.833 1663.965 C 3698.478 1662.47 3700.257 1660.937 3702.371 1659.332 L 3704.019 1658.123 L 3705.917 1656.866 C 3707.329 1656.006 3708.786 1655.142 3710.869 1654.255 C 3711.718 1653.849 3713.172 1653.371 3714.418 1653.013 C 3714.989 1652.83 3715.807 1652.648 3716.692 1652.505 C 3717.542 1652.361 3718.402 1652.252 3719.257 1652.175 C 3720.245 1652.117 3721.401 1652.141 3722.467 1652.217 C 3723.528 1652.283 3724.613 1652.419 3725.888 1652.754 C 3727.103 1653.058 3728.309 1653.45 3729.454 1653.923 C 3730.573 1654.443 3731.677 1655.052 3732.724 1655.733 C 3733.838 1656.438 3734.649 1657.122 3735.414 1657.843 C 3736.193 1658.564 3736.959 1659.36 3737.624 1660.136 C 3738.155 1660.839 3738.677 1661.554 3739.189 1662.28 C 3739.699 1663.003 3740.2 1663.737 3740.683 1664.476 C 3741.175 1665.216 3741.489 1665.933 3741.887 1666.672 C 3743.515 1669.661 3744.468 1672.533 3745.356 1675.415 C 3746.894 1681.077 3747.272 1686.28 3747.362 1691.274 C 3747.266 1701.101 3745.59 1709.948 3743.27 1718.36 C 3738.487 1735.101 3731.04 1750.208 3721.733 1764.24 C 3712.351 1778.188 3700.93 1791.044 3686.76 1801.567 C 3679.673 1806.797 3671.859 1811.4 3663.315 1814.896 C 3661.222 1815.838 3658.988 1816.545 3656.784 1817.295 C 3654.482 1818.116 3652.587 1818.573 3650.568 1819.135 C 3648.556 1819.662 3646.597 1820.278 3644.538 1820.721 L 3638.388 1822.093 C 3630.095 1823.731 3621.534 1824.829 3612.696 1825.014 C 3603.866 1825.179 3594.731 1824.293 3585.735 1822.099 C 3576.742 1819.911 3567.93 1816.311 3559.961 1811.512 C 3551.974 1806.728 3544.867 1800.815 3538.728 1794.391 C 3526.429 1781.466 3517.808 1766.858 3510.671 1752.319 C 3503.552 1737.712 3498.022 1722.948 3492.987 1708.252 C 3483.078 1678.841 3475.252 1649.639 3466.206 1621.3 C 3457.202 1593.013 3447.123 1565.426 3433.42 1540.616 C 3430.013 1534.41 3426.322 1528.438 3422.369 1522.723 C 3420.434 1519.822 3418.322 1517.101 3416.265 1514.324 C 3414.095 1511.666 3411.979 1508.947 3409.68 1506.436 C 3405.152 1501.334 3400.379 1496.506 3395.216 1492.207 C 3393.991 1491.085 3392.592 1490.044 3391.197 1489.001 L 3387.047 1485.85 L 3382.902 1482.69 C 3381.522 1481.634 3380.005 1480.787 3378.566 1479.824 C 3367.152 1471.902 3354.561 1465.945 3341.647 1461.006 L 3336.758 1459.248 C 3335.129 1458.664 3333.514 1458.028 3331.825 1457.626 L 3321.792 1454.845 C 3314.994 1453.437 3308.205 1451.862 3301.249 1451.184 C 3273.549 1447.516 3244.938 1450.59 3217.57 1458.112 C 3203.91 1462.059 3190.548 1467.163 3177.66 1473.324 L 3168.084 1478.14 L 3158.769 1483.451 C 3157.195 1484.303 3155.693 1485.272 3154.197 1486.248 L 3149.685 1489.145 C 3148.191 1490.126 3146.649 1491.039 3145.193 1492.074 L 3140.847 1495.207 C 3117.579 1511.774 3097.229 1532.577 3082.406 1556.554 C 3075.043 1568.541 3069.04 1581.332 3065.232 1594.681 C 3064.347 1598.026 3063.608 1601.404 3062.769 1604.765 C 3062.016 1608.175 3061.525 1611.786 3060.884 1615.291 C 3060.275 1618.82 3059.997 1622.39 3059.528 1625.94 C 3059.277 1627.717 3059.173 1629.501 3059.065 1631.288 L 3058.711 1636.646 C 3057.223 1665.226 3061.752 1694.155 3072.522 1720.69 C 3083.223 1747.232 3100.381 1771.211 3122.476 1789.718 C 3133.481 1799.01 3145.67 1806.969 3158.678 1813.409 C 3171.679 1819.874 3185.482 1824.808 3199.673 1828.411 C 3213.876 1831.988 3228.476 1834.249 3243.224 1835.221 C 3250.607 1835.519 3258.006 1835.921 3265.424 1835.685 C 3269.13 1835.624 3272.86 1835.661 3276.531 1835.381 C 3278.371 1835.26 3280.22 1835.21 3282.059 1835.031 L 3287.574 1834.511 C 3317.003 1831.43 3345.831 1822.208 3372.351 1808.37 C 3398.967 1794.633 3423.334 1776.38 3444.789 1755.101 C 3424.816 1777.805 3401.193 1797.469 3374.947 1813.056 C 3348.648 1828.519 3319.4 1839.513 3288.848 1844.246 L 3283.115 1845.07 C 3281.202 1845.35 3279.275 1845.5 3277.356 1845.721 C 3273.506 1846.199 3269.674 1846.353 3265.831 1846.606 C 3258.159 1847.244 3250.439 1847.117 3242.72 1847.142 C 3227.275 1846.787 3211.804 1845.08 3196.553 1841.925 C 3166.088 1835.643 3136.477 1822.799 3111.523 1803.244 C 3086.51 1783.806 3066.543 1757.826 3053.643 1728.749 C 3040.664 1699.655 3034.764 1667.599 3035.446 1635.82 L 3035.662 1629.86 C 3035.726 1627.87 3035.789 1625.882 3036.002 1623.907 C 3036.391 1619.955 3036.604 1615.972 3037.154 1612.036 L 3037.983 1606.132 L 3038.402 1603.178 C 3038.523 1602.198 3038.693 1601.208 3038.927 1600.2 C 3039.79 1596.202 3040.583 1592.174 3041.543 1588.2 C 3045.642 1572.347 3052.236 1557.351 3060.319 1543.41 C 3076.606 1515.539 3098.819 1491.721 3124.365 1472.757 C 3149.796 1453.557 3178.65 1439.109 3209.201 1429.588 C 3224.538 1424.993 3240.342 1421.828 3256.368 1420.096 C 3272.392 1418.269 3288.7 1418.443 3304.858 1420.165 C 3312.967 1420.854 3320.97 1422.513 3328.972 1424.077 L 3340.836 1427.152 C 3342.83 1427.611 3344.754 1428.313 3346.691 1428.967 L 3352.501 1430.943 C 3354.433 1431.62 3356.385 1432.236 3358.296 1432.969 L 3363.944 1435.374 L 3369.585 1437.806 L 3372.404 1439.028 L 3375.124 1440.447 L 3385.997 1446.158 C 3389.528 1448.216 3392.946 1450.463 3396.423 1452.619 C 3398.133 1453.735 3399.925 1454.742 3401.567 1455.951 L 3406.488 1459.59 L 3411.401 1463.239 C 3413.042 1464.448 3414.681 1465.654 3416.273 1467.055 C 3422.778 1472.364 3428.738 1478.234 3434.303 1484.364 C 3437.134 1487.404 3439.713 1490.609 3442.346 1493.782 C 3444.837 1497.037 3447.381 1500.27 3449.686 1503.626 C 3454.403 1510.283 3458.74 1517.136 3462.689 1524.127 C 3466.672 1531.104 3470.352 1538.194 3473.721 1545.361 C 3477.128 1552.518 3480.253 1559.755 3483.171 1567.017 C 3489.059 1581.538 3494.135 1596.18 3498.903 1610.777 C 3508.426 1639.954 3516.48 1669.114 3526.081 1696.918 C 3530.909 1710.771 3536.038 1724.354 3542.217 1736.899 C 3548.362 1749.427 3555.518 1761.046 3564.15 1770.019 C 3572.777 1779.03 3582.736 1785.064 3594.108 1787.783 C 3599.794 1789.15 3605.822 1789.779 3612.094 1789.644 C 3618.372 1789.497 3624.839 1788.647 3631.37 1787.387 L 3636.284 1786.303 C 3637.921 1785.967 3639.569 1785.436 3641.213 1785.015 C 3642.834 1784.568 3644.615 1784.138 3645.864 1783.655 C 3647.233 1783.18 3648.619 1782.792 3649.968 1782.158 C 3655.416 1779.948 3660.746 1776.874 3665.815 1773.149 C 3675.962 1765.682 3685.034 1755.72 3692.507 1744.627 C 3699.94 1733.53 3705.967 1721.177 3709.493 1708.839 C 3711.225 1702.714 3712.252 1696.564 3712.322 1691.266 C 3712.27 1688.717 3712.035 1686.341 3711.604 1684.689 C 3711.34 1683.981 3711.153 1683.231 3710.926 1682.914 C 3710.876 1682.825 3710.863 1682.642 3710.805 1682.613 C 3710.75 1682.577 3710.708 1682.537 3710.679 1682.484 C 3710.65 1682.434 3710.633 1682.374 3710.625 1682.305 C 3710.958 1682.745 3711.383 1683.212 3711.826 1683.604 C 3712.264 1683.979 3712.735 1684.338 3713.418 1684.834 C 3714.057 1685.274 3714.756 1685.641 3715.469 1685.921 C 3716.166 1686.249 3716.915 1686.518 3717.678 1686.689 C 3718.507 1686.851 3719.123 1686.951 3719.708 1687.016 C 3720.302 1687.077 3720.986 1687.051 3721.503 1687.008 C 3721.892 1687.001 3722.285 1686.963 3722.668 1686.89 L 3723.563 1686.687 C 3723.914 1686.628 3724.441 1686.364 3724.446 1686.389 C 3724.983 1686.135 3724.185 1686.48 3723.296 1687.198 C 3722.393 1687.867 3721.289 1688.78 3720.136 1689.82 C 3718.988 1690.841 3717.779 1691.989 3716.554 1693.185 C 3711.639 1697.997 3706.508 1703.514 3701.26 1709.023 C 3690.696 1720.095 3679.636 1731.514 3666.401 1741.848 C 3659.738 1746.982 3652.531 1751.9 3644.072 1755.886 C 3639.851 1757.871 3635.316 1759.616 3630.406 1760.88 C 3625.507 1762.139 3620.207 1762.897 3614.726 1762.817 C 3609.251 1762.741 3603.634 1761.78 3598.416 1759.991 C 3593.187 1758.208 3588.403 1755.646 3584.178 1752.716 C 3579.909 1749.795 3576.287 1746.464 3573.032 1743.031 C 3569.712 1739.604 3566.998 1735.999 3564.356 1732.382 C 3563.132 1730.56 3561.872 1728.737 3560.731 1726.896 C 3559.636 1725.035 3558.448 1723.249 3557.446 1721.317 C 3556.426 1719.408 3555.381 1717.494 3554.397 1715.581 L 3551.717 1709.841 C 3548.376 1702.19 3545.485 1694.54 3543.11 1686.926 C 3538.203 1671.683 3534.678 1656.531 3531.452 1641.414 C 3525.104 1611.194 3520.59 1581.11 3516.108 1551.123 C 3507.283 1491.169 3499.275 1431.51 3488.677 1372.368 C 3487.384 1364.969 3485.977 1357.601 3484.612 1350.219 L 3482.486 1339.168 L 3481.418 1333.66 L 3480.278 1328.38 C 3477.216 1314.309 3473.034 1300.476 3467.765 1287.057 C 3457.202 1260.225 3442.123 1235.168 3423.455 1213.099 C 3414.077 1202.098 3403.725 1191.925 3392.598 1182.679 C 3387.06 1178.017 3381.224 1173.733 3375.313 1169.557 C 3372.285 1167.582 3369.306 1165.518 3366.23 1163.615 C 3363.124 1161.759 3360.085 1159.779 3356.891 1158.077 C 3344.265 1151.002 3331.027 1144.948 3317.26 1140.401 C 3303.507 1135.822 3289.305 1132.597 3274.903 1130.735 C 3246.086 1127.211 3216.445 1129.523 3188.351 1137.905 C 3160.196 1146.137 3133.689 1160.131 3109.931 1177.937 C 3086.141 1195.779 3065.152 1217.448 3046.712 1241.126 C 3037.512 1252.994 3028.941 1265.379 3020.885 1278.119 L 3015.002 1287.777 C 3013.011 1290.982 3011.245 1294.315 3009.345 1297.578 C 3005.498 1304.079 3002.096 1310.819 2998.487 1317.466 Z " fill="rgb(68,68,69)"/><path d=" M 4026.336 1813.328 C 4015.8 1824.212 4003.862 1834.116 3989.687 1840.836 C 3982.602 1844.131 3974.888 1846.446 3966.846 1847.205 C 3958.818 1847.982 3950.514 1847.102 3942.7 1844.664 C 3934.869 1842.243 3927.549 1838.375 3921 1833.645 C 3914.427 1828.926 3908.529 1823.443 3903.127 1817.601 C 3892.406 1805.823 3883.736 1792.62 3876.02 1779.068 C 3860.846 1751.782 3849.618 1722.859 3840.106 1693.614 C 3835.321 1678.987 3831.081 1664.218 3827.151 1649.389 C 3823.239 1634.556 3819.583 1619.668 3816.328 1604.707 C 3809.764 1574.799 3804.226 1544.717 3799.545 1514.531 C 3794.771 1484.361 3790.948 1454.077 3787.59 1423.761 C 3784.238 1393.444 3781.683 1363.064 3779.434 1332.673 C 3777.303 1302.274 3775.733 1271.848 3774.503 1241.415 C 3773.431 1210.979 3772.751 1180.533 3772.507 1150.085 C 3772.444 1134.862 3772.463 1119.638 3772.605 1104.415 C 3772.742 1089.192 3772.911 1073.97 3773.347 1058.752 C 3774.154 1028.317 3775.252 997.889 3777.067 967.49 C 3777.937 952.291 3778.919 937.095 3780.046 921.911 C 3781.2 906.728 3782.499 891.552 3783.908 876.388 C 3789.683 815.752 3797.576 755.225 3809.709 695.396 C 3815.87 665.513 3822.981 635.763 3832.349 606.65 C 3837.045 592.104 3842.29 577.712 3848.432 563.706 C 3851.565 556.729 3854.979 549.872 3858.704 543.206 C 3862.425 536.541 3866.551 530.084 3871.323 524.171 C 3863.515 537.204 3858.056 551.321 3853.434 565.625 C 3848.81 579.942 3845.022 594.511 3841.826 609.216 C 3835.456 638.63 3830.704 668.381 3826.879 698.255 C 3819.246 758.015 3814.729 818.18 3811.685 878.397 C 3810.91 893.451 3810.247 908.513 3809.725 923.582 C 3809.164 938.647 3808.629 953.714 3808.269 968.787 C 3807.568 998.934 3806.992 1029.084 3806.936 1059.24 C 3806.821 1089.391 3806.91 1119.546 3807.486 1149.691 C 3807.91 1179.837 3808.716 1209.974 3809.885 1240.092 C 3810.935 1270.213 3812.44 1300.311 3814.281 1330.379 C 3815.183 1345.414 3816.157 1360.443 3817.284 1375.457 C 3818.416 1390.471 3819.658 1405.472 3820.942 1420.468 C 3826.24 1480.424 3833.291 1540.209 3843.552 1599.316 C 3846.197 1614.073 3848.936 1628.807 3852.054 1643.446 C 3855.163 1658.084 3858.595 1672.636 3862.343 1687.081 C 3869.958 1715.909 3878.947 1744.417 3891.406 1771.12 C 3897.657 1784.424 3904.876 1797.239 3913.658 1808.69 C 3922.465 1820.019 3933.105 1830.011 3945.995 1835.475 C 3952.417 1838.185 3959.37 1839.645 3966.471 1839.656 C 3973.579 1839.696 3980.769 1838.276 3987.707 1835.895 C 3994.67 1833.543 4001.383 1830.219 4007.831 1826.378 L 4012.599 1823.366 C 4014.183 1822.348 4015.685 1821.208 4017.244 1820.138 L 4019.572 1818.518 L 4021.825 1816.794 L 4026.336 1813.328 Z " fill="rgb(68,68,69)"/><path d=" M 4328.852 1639.61 C 4325.975 1657.147 4320.882 1674.358 4314.927 1691.175 C 4308.946 1708.006 4301.975 1724.486 4294.299 1740.661 C 4286.581 1756.814 4278.144 1772.662 4268.789 1788.102 C 4264.128 1795.839 4259.189 1803.438 4253.943 1810.914 C 4248.682 1818.381 4243.176 1825.778 4236.988 1832.876 C 4230.724 1839.966 4224.163 1846.937 4215.489 1853.304 C 4213.274 1854.885 4210.982 1856.439 4208.285 1857.844 C 4205.68 1859.269 4202.66 1860.578 4199.184 1861.577 C 4195.768 1862.585 4191.454 1863.177 4186.772 1862.641 C 4182.102 1862.138 4176.999 1860.144 4173.254 1857.226 C 4169.503 1854.352 4166.871 1851.02 4164.934 1847.89 C 4164.43 1847.096 4164.07 1846.359 4163.643 1845.58 C 4163.249 1844.818 4162.796 1844.023 4162.497 1843.283 C 4161.848 1841.776 4161.165 1840.269 4160.684 1838.711 C 4158.551 1832.511 4157.798 1826.087 4157.963 1820.219 C 4158.308 1808.385 4161.33 1798.351 4164.661 1789.11 C 4168.033 1779.852 4172.124 1771.429 4176.29 1763.227 C 4180.481 1755.052 4184.824 1747.154 4189.176 1739.375 C 4197.953 1723.86 4206.841 1708.811 4215.135 1693.602 C 4223.556 1678.474 4231.506 1663.259 4238.586 1647.771 C 4245.805 1632.347 4252.056 1616.605 4257.315 1600.617 C 4262.62 1584.639 4266.619 1568.328 4269.462 1551.83 C 4270.864 1543.533 4271.866 1535.387 4272.558 1526.71 C 4272.946 1522.427 4273.43 1518.147 4273.744 1513.855 L 4274.552 1500.96 C 4274.891 1496.66 4274.92 1492.352 4275.116 1488.043 C 4275.238 1483.732 4275.549 1479.415 4275.51 1475.1 L 4275.604 1462.139 L 4275.419 1449.163 C 4275.373 1447 4275.375 1444.831 4275.295 1442.667 L 4275.006 1436.176 C 4274.786 1431.849 4274.686 1427.506 4274.358 1423.181 L 4273.5 1410.172 L 4272.316 1397.174 C 4270.629 1379.837 4268.264 1362.513 4265.35 1345.204 C 4262.385 1327.907 4258.888 1310.622 4254.914 1293.324 C 4285.232 1357.535 4300.975 1429.227 4302.395 1501.449 L 4302.51 1515.006 C 4302.5 1519.525 4302.316 1524.042 4302.226 1528.566 C 4302.08 1537.51 4301.42 1546.941 4300.394 1556.117 C 4298.396 1574.57 4294.492 1592.755 4289.426 1610.491 C 4284.321 1628.232 4277.756 1645.432 4270.468 1662.163 C 4263.051 1678.843 4254.761 1694.984 4246.122 1710.732 C 4237.374 1726.412 4228.275 1741.722 4219.453 1756.781 C 4210.615 1771.756 4201.981 1786.763 4195.903 1801.231 C 4192.922 1808.405 4190.789 1815.519 4190.411 1821.364 C 4190.188 1824.304 4190.472 1826.777 4191.025 1828.979 C 4191.127 1829.552 4191.368 1830.056 4191.528 1830.598 C 4191.603 1830.899 4191.723 1831.051 4191.811 1831.279 C 4191.906 1831.473 4191.983 1831.753 4192.067 1831.891 C 4192.392 1832.546 4192.569 1832.688 4192.265 1832.57 C 4191.979 1832.414 4191.138 1832.076 4190.821 1832.137 C 4190.502 1832.129 4190.678 1832.361 4191.502 1832.158 C 4192.275 1831.997 4193.387 1831.688 4194.682 1831.059 C 4195.311 1830.8 4195.99 1830.428 4196.686 1830.051 C 4197.37 1829.727 4198.106 1829.228 4198.825 1828.816 C 4204.713 1825.181 4210.854 1819.738 4216.652 1813.989 C 4222.446 1808.142 4228.148 1801.894 4233.612 1795.357 C 4239.082 1788.824 4244.351 1782.027 4249.572 1775.149 C 4259.896 1761.309 4269.778 1746.968 4279.153 1732.264 C 4288.587 1717.586 4297.514 1702.534 4305.961 1687.171 C 4310.137 1679.468 4314.228 1671.697 4318.064 1663.786 C 4320.015 1659.84 4321.885 1655.856 4323.691 1651.829 C 4325.454 1647.79 4327.194 1643.728 4328.852 1639.61 Z " fill="rgb(68,68,69)"/><path d=" M 4317.949 1201.498 C 4318.428 1201.048 4318.666 1200.57 4318.668 1199.699 C 4318.659 1198.85 4318.41 1197.832 4318.041 1196.831 C 4317.251 1194.813 4316.113 1192.791 4314.85 1190.84 C 4312.307 1186.937 4309.382 1183.181 4306.33 1179.524 C 4303.269 1175.868 4300.174 1172.214 4296.953 1168.633 L 4287.33 1157.762 C 4284.135 1154.091 4280.886 1150.413 4277.761 1146.572 C 4274.582 1142.762 4271.491 1138.813 4268.564 1134.624 C 4265.658 1130.422 4262.858 1126.011 4260.414 1121.161 C 4257.972 1116.327 4255.848 1111.022 4254.604 1105.048 C 4253.994 1102.061 4253.604 1098.904 4253.584 1095.605 C 4253.549 1093.011 4253.493 1090.469 4253.552 1087.902 C 4253.571 1082.767 4253.94 1077.659 4254.377 1072.546 C 4254.883 1067.453 4255.577 1062.372 4256.432 1057.343 C 4257.375 1052.335 4258.361 1047.329 4259.608 1042.429 C 4260.879 1037.538 4262.167 1032.667 4263.67 1027.918 C 4265.158 1023.172 4266.706 1018.494 4268.216 1013.943 C 4269.704 1009.419 4271.215 1004.907 4272.396 1001.012 C 4273.004 999.037 4273.425 997.263 4273.627 996.097 L 4273.686 995.71 L 4273.719 995.525 L 4273.707 995.462 C 4273.704 995.423 4273.703 995.383 4273.709 995.343 C 4273.71 995.331 4273.721 995.288 4273.717 995.302 L 4273.685 995.456 C 4273.67 995.561 4273.667 995.667 4273.68 995.771 C 4273.68 995.805 4273.688 995.806 4273.688 995.869 L 4273.682 996.116 C 4273.684 996.281 4273.693 996.446 4273.711 996.612 C 4273.728 996.776 4273.753 996.942 4273.786 997.104 L 4273.841 997.345 L 4273.919 997.794 C 4274.039 998.429 4274.232 999.058 4274.488 999.649 C 4274.603 999.874 4274.796 1000.425 4275.004 1000.843 C 4275.214 1001.284 4275.458 1001.713 4275.725 1002.122 C 4275.996 1002.546 4276.284 1002.889 4276.604 1003.317 C 4276.931 1003.759 4277.29 1004.184 4277.682 1004.582 C 4279.415 1006.204 4280.795 1007.165 4282.542 1007.812 C 4283.333 1008.212 4284.21 1008.413 4285.098 1008.515 C 4285.986 1008.744 4287.073 1008.666 4287.844 1008.614 C 4288.222 1008.604 4288.602 1008.554 4288.971 1008.47 C 4289.156 1008.428 4289.339 1008.378 4289.518 1008.318 C 4289.705 1008.253 4289.76 1008.271 4289.885 1008.235 C 4290.103 1008.187 4290.316 1008.117 4290.52 1008.027 C 4290.732 1007.93 4290.939 1007.806 4290.963 1007.829 C 4291.08 1007.818 4291.282 1007.655 4291.275 1007.662 C 4291.213 1007.732 4291.142 1007.785 4291.058 1007.822 C 4290.441 1008.339 4289.319 1009.31 4288.032 1010.689 C 4287.414 1011.312 4286.699 1012.138 4286.035 1012.85 L 4283.85 1015.262 L 4274.348 1026.084 C 4271.014 1029.85 4267.391 1033.583 4263.627 1037.269 C 4256.115 1044.657 4247.605 1051.581 4238.252 1057.437 C 4228.94 1063.352 4218.636 1067.945 4208.064 1071.232 C 4205.385 1071.94 4202.74 1072.775 4200.041 1073.339 C 4197.343 1073.921 4194.695 1074.53 4191.83 1074.973 C 4186.189 1075.849 4180.507 1076.258 4174.89 1076.173 C 4169.276 1076.112 4163.731 1075.575 4158.333 1074.629 C 4152.928 1073.714 4147.679 1072.374 4142.597 1070.764 C 4132.425 1067.551 4122.971 1063.129 4114.123 1058.227 C 4109.69 1055.792 4105.401 1053.23 4101.261 1050.644 C 4097.157 1048.101 4093.013 1045.409 4089.531 1043.434 L 4087.529 1042.372 C 4087.442 1042.292 4087.281 1042.249 4087.947 1042.25 C 4088.011 1042.229 4088.392 1042.238 4088.611 1042.192 C 4088.784 1042.154 4089.311 1042.089 4089.709 1041.956 C 4090.555 1041.714 4091.986 1041.063 4093.038 1039.908 C 4093.295 1039.653 4093.534 1039.37 4093.745 1039.068 C 4093.949 1038.791 4094.166 1038.378 4094.241 1038.262 C 4094.453 1037.901 4094.622 1037.502 4094.735 1037.09 C 4094.927 1036.183 4095.038 1035.669 4094.981 1034.978 L 4094.884 1034.266 C 4094.86 1034.113 4094.819 1033.962 4094.762 1033.816 C 4094.591 1033.427 4094.64 1033.536 4094.581 1033.459 C 4094.559 1033.439 4094.534 1033.424 4094.504 1033.41 C 4094.489 1033.416 4094.53 1033.491 4094.539 1033.529 C 4094.571 1033.625 4094.598 1033.723 4094.619 1033.828 C 4094.81 1034.162 4094.916 1034.45 4095.161 1034.846 C 4096.086 1036.39 4097.444 1038.245 4098.869 1040.077 L 4103.331 1045.708 C 4109.432 1053.33 4115.431 1061.381 4120.666 1069.857 C 4123.301 1074.091 4125.72 1078.465 4127.968 1082.919 C 4129.092 1085.144 4130.15 1087.408 4131.145 1089.694 C 4132.189 1091.963 4133.122 1094.276 4134.038 1096.596 C 4137.544 1105.97 4140.436 1115.431 4142.056 1125.553 C 4145.186 1145.67 4143.196 1166.216 4138.81 1185.882 C 4136.605 1195.727 4133.643 1205.381 4130.447 1214.727 C 4128.903 1219.374 4127.09 1224.008 4125.756 1228.132 C 4125.423 1229.129 4125.12 1230.097 4124.951 1230.812 C 4124.859 1231.181 4124.837 1231.42 4124.849 1231.509 C 4124.868 1231.493 4124.89 1231.459 4124.905 1231.435 C 4124.914 1231.412 4124.914 1231.424 4124.932 1231.374 L 4124.989 1231.182 C 4125.029 1231.025 4125.036 1231.009 4125.102 1230.615 L 4125.157 1230.144 L 4125.194 1229.418 C 4125.185 1228.724 4125.206 1228.344 4124.936 1226.859 C 4124.772 1226.149 4124.699 1225.863 4124.328 1224.851 C 4123.952 1223.864 4123.435 1222.901 4122.822 1222.044 C 4122.191 1221.13 4121.15 1219.953 4120.082 1219.151 C 4118.914 1218.274 4118.03 1217.765 4116.922 1217.294 C 4115.812 1216.833 4114.689 1216.565 4113.872 1216.425 C 4112.993 1216.271 4111.962 1216.231 4111.189 1216.271 C 4108.585 1216.39 4107.232 1217.071 4106.648 1217.277 C 4105.897 1217.618 4105.732 1217.708 4105.49 1217.84 C 4105.015 1218.089 4105.649 1217.544 4106.172 1216.932 L 4115.111 1206.699 C 4118.351 1202.992 4121.838 1199.339 4125.462 1195.752 C 4132.705 1188.567 4140.744 1181.829 4149.631 1176.013 C 4154.078 1173.11 4158.743 1170.455 4163.614 1168.114 C 4168.511 1165.839 4173.557 1163.764 4178.808 1162.199 C 4184.046 1160.633 4189.424 1159.405 4194.887 1158.763 C 4200.338 1158.041 4205.846 1157.958 4211.257 1158.173 C 4222.105 1158.821 4232.569 1161.245 4242.183 1164.911 C 4247.017 1166.698 4251.649 1168.817 4256.107 1171.129 C 4258.358 1172.245 4260.544 1173.448 4262.726 1174.635 C 4264.871 1175.882 4267.02 1177.105 4269.126 1178.366 C 4273.344 1180.895 4277.456 1183.519 4281.53 1186.126 C 4285.585 1188.766 4289.605 1191.407 4293.668 1193.906 C 4297.719 1196.413 4301.824 1198.813 4306.055 1200.695 C 4308.169 1201.574 4310.333 1202.325 4312.447 1202.66 C 4314.563 1202.927 4316.524 1202.64 4317.949 1201.498 Z  M 4320.154 1204.271 C 4319.529 1204.669 4318.902 1205.088 4318.25 1205.429 C 4317.556 1205.659 4316.854 1205.942 4316.152 1206.089 C 4315.451 1206.168 4314.734 1206.287 4314.044 1206.305 L 4312.006 1206.2 C 4309.365 1205.863 4306.973 1205.041 4304.63 1204.194 C 4300.013 1202.385 4295.693 1200.184 4291.361 1198.067 C 4287.051 1195.918 4282.746 1193.81 4278.398 1191.858 C 4274.075 1189.851 4269.683 1188.061 4265.259 1186.455 C 4247.602 1179.928 4228.952 1177.552 4212.392 1180.737 C 4195.778 1183.769 4181.244 1191.757 4167.481 1201.867 C 4160.6 1206.944 4153.972 1212.628 4147.375 1218.681 C 4144.071 1221.71 4140.835 1224.883 4137.452 1228.097 L 4132.305 1233.078 C 4130.492 1234.772 4128.68 1236.49 4126.38 1238.481 C 4125.153 1239.503 4123.994 1240.561 4121.536 1242.154 C 4120.787 1242.605 4120.118 1243.021 4118.817 1243.603 C 4117.698 1244.079 4115.763 1244.932 4112.565 1245.113 C 4111.642 1245.153 4110.463 1245.091 4109.435 1244.925 C 4108.465 1244.789 4107.205 1244.46 4105.96 1243.938 C 4104.715 1243.402 4103.677 1242.86 4102.411 1241.862 C 4101.241 1240.955 4100.067 1239.691 4099.357 1238.652 C 4098.675 1237.662 4098.087 1236.566 4097.642 1235.448 C 4097.2 1234.305 4097.124 1233.861 4096.92 1233.006 C 4096.562 1231.233 4096.598 1230.553 4096.577 1229.559 C 4096.575 1229.029 4096.6 1228.637 4096.626 1228.384 L 4096.723 1227.466 C 4096.807 1226.773 4096.884 1226.465 4096.973 1226.013 L 4097.112 1225.378 L 4097.245 1224.884 L 4097.519 1223.937 C 4097.865 1222.875 4098.214 1221.974 4098.536 1221.221 C 4099.187 1219.688 4099.803 1218.441 4100.411 1217.237 C 4102.897 1212.576 4105.199 1208.555 4107.559 1204.457 C 4112.215 1196.333 4116.517 1188.226 4120.225 1179.843 C 4123.941 1171.479 4126.976 1162.833 4128.883 1153.952 C 4129.85 1149.513 4130.469 1145.02 4130.84 1140.509 C 4131.097 1136.003 4131.178 1131.47 4130.72 1126.983 C 4130.323 1122.501 4129.494 1118.072 4128.335 1113.594 C 4127.204 1109.145 4125.783 1104.772 4124.076 1100.512 C 4122.387 1096.242 4120.394 1092.098 4118.158 1088.091 C 4115.963 1084.058 4113.457 1080.197 4110.754 1076.478 C 4105.355 1069.009 4099.095 1062.261 4092.27 1055.755 L 4087.046 1050.771 C 4085.261 1049.052 4083.424 1047.327 4081.463 1045.049 C 4080.976 1044.495 4080.445 1043.77 4079.945 1043.124 L 4079.134 1041.863 C 4078.999 1041.638 4078.876 1041.464 4078.736 1041.198 L 4078.31 1040.321 C 4078.034 1039.688 4077.782 1039.266 4077.527 1038.277 C 4077.408 1037.84 4077.301 1037.395 4077.211 1036.95 L 4077.089 1036.279 C 4077.062 1035.974 4077.045 1035.663 4077.036 1035.353 C 4077.034 1034.069 4077.04 1032.93 4077.534 1031.482 C 4077.754 1030.792 4078.03 1030.112 4078.349 1029.47 C 4078.46 1029.205 4078.793 1028.687 4079.082 1028.288 C 4079.386 1027.87 4079.715 1027.467 4080.065 1027.093 C 4081.562 1025.542 4083.518 1024.575 4084.951 1024.201 C 4085.642 1024.007 4086.458 1023.851 4086.933 1023.816 C 4087.45 1023.762 4088.13 1023.718 4088.493 1023.733 C 4090.36 1023.758 4091.373 1024.002 4092.442 1024.212 C 4094.395 1024.658 4095.813 1025.143 4097.184 1025.617 C 4099.88 1026.559 4102.196 1027.506 4104.498 1028.435 L 4111.198 1031.17 C 4115.588 1032.939 4119.885 1034.629 4124.171 1036.163 C 4132.745 1039.207 4141.278 1041.605 4149.671 1043.155 C 4153.867 1043.924 4158.035 1044.434 4162.134 1044.733 C 4166.238 1044.989 4170.281 1045.014 4174.244 1044.758 C 4178.205 1044.479 4182.082 1043.912 4185.862 1043.051 C 4187.708 1042.63 4189.694 1042.011 4191.648 1041.448 C 4193.608 1040.906 4195.484 1040.128 4197.406 1039.498 C 4204.927 1036.528 4212.041 1032.75 4218.599 1027.92 C 4225.219 1023.186 4231.29 1017.517 4237.19 1011.238 C 4243.1 1004.909 4248.635 998.054 4255.163 990.319 L 4257.736 987.346 C 4258.708 986.31 4259.569 985.331 4260.637 984.254 L 4262.219 982.65 C 4262.747 982.117 4263.407 981.523 4263.999 980.97 C 4264.602 980.41 4265.197 979.854 4265.966 979.232 C 4266.712 978.624 4267.38 978.052 4268.204 977.434 C 4269.104 976.789 4270.015 976.159 4270.938 975.547 C 4271.937 974.911 4273.227 974.23 4274.388 973.633 C 4274.706 973.48 4274.939 973.34 4275.331 973.181 L 4276.474 972.724 C 4277.241 972.43 4278.016 972.155 4278.796 971.901 C 4279.208 971.776 4279.532 971.648 4280.015 971.54 L 4281.448 971.24 C 4282.407 971.056 4283.379 970.91 4284.346 970.8 C 4286.302 970.589 4288.591 970.726 4290.673 970.963 C 4292.729 971.299 4294.749 971.892 4296.695 972.596 C 4299.472 973.843 4302.003 975.248 4304.508 977.822 C 4305.113 978.43 4305.687 979.063 4306.225 979.712 C 4306.75 980.358 4307.15 980.991 4307.582 981.664 C 4308 982.334 4308.391 983.022 4308.753 983.722 C 4309.102 984.402 4309.486 985.196 4309.655 985.718 C 4310.085 986.885 4310.45 988.087 4310.743 989.295 C 4310.813 989.584 4310.893 989.924 4310.94 990.175 L 4311.043 990.864 L 4311.217 992.247 L 4311.345 993.635 L 4311.391 994.33 L 4311.395 994.874 C 4311.392 995.578 4311.378 996.283 4311.349 996.987 L 4311.295 998.04 L 4311.202 998.889 L 4310.99 1000.552 L 4310.872 1001.382 L 4310.739 1002.08 L 4310.461 1003.459 C 4309.685 1006.979 4308.797 1009.82 4307.917 1012.396 C 4306.17 1017.625 4304.298 1022.079 4302.5 1026.552 C 4298.905 1035.412 4295.563 1043.887 4292.437 1052.412 C 4290.866 1056.668 4289.328 1060.908 4287.938 1065.189 C 4286.423 1069.444 4285.17 1073.745 4283.851 1078.053 C 4282.584 1082.367 4281.414 1086.719 4280.336 1091.101 C 4279.767 1093.282 4279.351 1095.519 4278.822 1097.688 C 4278.402 1099.163 4278.141 1100.817 4278.034 1102.592 C 4277.56 1109.758 4279.62 1118.538 4282.832 1126.969 C 4284.44 1131.218 4286.312 1135.47 4288.348 1139.699 C 4290.445 1143.887 4292.658 1148.081 4295.07 1152.176 C 4299.827 1160.425 4305.163 1168.396 4310.503 1176.431 C 4313.137 1180.48 4315.86 1184.479 4318.29 1188.765 C 4319.499 1190.913 4320.676 1193.111 4321.526 1195.6 C 4321.931 1196.857 4322.296 1198.192 4322.282 1199.745 C 4322.324 1201.267 4321.558 1203.21 4320.154 1204.271 Z " fill="rgb(68,68,69)"/></g></svg>